<?xml version="1.0" encoding="utf-8"?>
<!-- Generator: Adobe Illustrator 26.0.3, SVG Export Plug-In . SVG Version: 6.00 Build 0)  -->
<svg version="1.1" id="Layer_1" xmlns="http://www.w3.org/2000/svg" xmlns:xlink="http://www.w3.org/1999/xlink" x="0px" y="0px"
	 viewBox="0 0 1060 266" style="enable-background:new 0 0 1060 266;" xml:space="preserve">
<g>
	<polygon points="76.04,-0.47 10.04,265.53 178.04,265.53 158.19,186.53 93.32,186.53 158.04,-0.47 	"/>
	<polygon points="261.04,265.53 327.04,-0.47 159.04,-0.47 178.89,78.53 243.76,78.53 179.04,265.53 	"/>
	<path d="M389.23,156.15h45.6L429.19,188h-81.8L365.2,86.66h36.19L389.23,156.15z"/>
	<path d="M505.04,188l-1.73-18.82h-31.13L463.79,188h-36.2l46-101.34h57.18l9.7,101.34H505.04z M494.33,117.06l-11.87,26.78h19.58
		l-1.88-26.78H494.33z"/>
	<path d="M564.83,86.66h56c10.33,0,18.33,2.22,24,6.66s8.52,9.94,8.55,16.5c0.27,7.9-3.6,15.38-10.22,19.71
		c-3.09,2.03-6.52,3.49-10.12,4.32l-0.14,1.45c2.9,0.96,5.64,2.38,8.1,4.2c5.41,4.44,8.12,9.99,8.11,16.65
		c0.22,8.77-3.53,17.17-10.2,22.87c-6.81,6-16.2,9-28.16,9h-63.71L564.83,86.66z M587.71,162.66h16.07c6.08,0,9.12-2.89,9.12-8.68
		c0-4.83-2.9-7.24-8.69-7.24h-13.75L587.71,162.66z M607.83,111.99h-11.15l-2.31,13h12.74c2.14,0.12,4.24-0.6,5.86-2
		c1.43-1.38,2.2-3.31,2.1-5.29c0.03-1.57-0.63-3.08-1.81-4.12C611.71,112.39,609.78,111.82,607.83,111.99z"/>
	<path d="M723.65,83.76c15.06,0,27.17,3.93,36.34,11.8c9.17,7.87,14.96,18.41,17.37,31.63h-35.61c-0.71-2.38-1.9-4.59-3.48-6.51
		c-3.57-4.34-8.69-6.51-15.34-6.51c-6.13-0.04-11.96,2.66-15.89,7.36c-4.34,4.87-6.51,11.36-6.51,19.47
		c0,6.08,1.64,10.86,4.92,14.33c3.28,3.47,7.66,5.21,13.13,5.2c5.78,0.09,11.33-2.22,15.35-6.37c1.91-1.87,3.52-4.02,4.78-6.37
		h36.48c-2.47,7.85-6.4,15.17-11.58,21.57c-11.88,14.39-27.13,21.58-45.75,21.57c-16.7,0-30.03-4.58-40-13.75s-14.97-20.99-15-35.47
		c0-16,5.84-29.67,17.51-41C692.04,89.38,706.47,83.72,723.65,83.76z"/>
	<path d="M839.61,190.89c-16.7,0-30.03-4.58-40-13.75c-9.97-9.17-14.97-20.99-15-35.47c0-16,5.84-29.67,17.51-41
		c11.67-11.33,26.1-16.98,43.29-16.94c16.67,0,30,4.59,40,13.76c10,9.17,15,21,15,35.47c0,16-5.84,29.67-17.52,41
		C871.21,185.29,856.78,190.93,839.61,190.89z M840.33,160.49c6.14,0.07,11.98-2.61,15.93-7.31c4.34-4.87,6.51-11.36,6.51-19.47
		c0-6.08-1.64-10.86-4.92-14.33c-3.28-3.47-7.67-5.21-13.17-5.21c-6.14-0.06-11.99,2.65-15.93,7.36
		c-4.34,4.87-6.51,11.36-6.51,19.47c0,6.08,1.64,10.86,4.92,14.33c3.28,3.47,7.67,5.21,13.17,5.2V160.49z"/>
	<path d="M1001.61,86.66h48.35L1032.15,188h-36.19l8.11-46.18l4.49-13.18h-1.45l-18,36.2h-33.3l-5.21-36.2h-1.56v13.18L940.93,188
		h-36.17l17.8-101.34h47.92l5.5,47.05h3.62L1001.61,86.66z"/>
</g>
</svg>
