<?xml version="1.0" encoding="utf-8"?>
<!-- Generator: Adobe Illustrator 26.0.3, SVG Export Plug-In . SVG Version: 6.00 Build 0)  -->
<svg version="1.1" id="Layer_1" xmlns="http://www.w3.org/2000/svg" xmlns:xlink="http://www.w3.org/1999/xlink" x="0px" y="0px"
	 viewBox="0 0 907 342" style="enable-background:new 0 0 907 342;" xml:space="preserve">
<g>
	<path d="M170.83,0L170.83,0c-94.44,0-171,76.56-171,171v0c0,94.44,76.56,171,171,171h0c94.44,0,171-76.56,171-171v0
		C341.83,76.56,265.27,0,170.83,0z M170.83,98c12.7,0,23,10.3,23,23s-10.3,23-23,23s-23-10.3-23-23S158.13,98,170.83,98z
		 M262.75,169.28c-18.37,5.97-37.58,9.28-57.42,10.91V215c0,16.02-12.98,29-29,29h-11c-16.02,0-29-12.98-29-29v-34.81
		c-19.84-1.63-39.05-4.94-57.42-10.91c-5.12-1.66-8.58-6.45-8.58-11.83c0-8.28,7.92-14.21,15.88-11.95c26.73,7.61,55.15,10,84.62,10
		c29.47,0,57.89-2.39,84.62-10c7.96-2.27,15.88,3.67,15.88,11.95C271.33,162.83,267.87,167.62,262.75,169.28z"/>
	<g>
		<path d="M465.27,143.07c5.67,3.24,10.18,7.9,13.51,14c3.33,6.1,4.99,13.13,4.99,21.1s-1.67,14.98-4.99,21.03
			c-3.33,6.05-7.83,10.69-13.51,13.93c-5.68,3.24-11.89,4.85-18.64,4.85c-8.54,0-15.05-2.2-19.55-6.61v32.5h-31.79V139.63h30.25
			v6.33c4.59-5.16,11.63-7.74,21.1-7.74C453.39,138.22,459.6,139.84,465.27,143.07z M448.04,189.29c2.34-2.62,3.52-6.33,3.52-11.11
			s-1.17-8.51-3.52-11.18c-2.35-2.67-5.35-4.01-9-4.01s-6.66,1.34-9,4.01c-2.35,2.67-3.52,6.4-3.52,11.18s1.17,8.49,3.52,11.11
			c2.34,2.63,5.35,3.94,9,3.94S445.69,191.91,448.04,189.29z"/>
		<path d="M575.22,185.49h-53.46c1.12,2.91,3,5.13,5.63,6.68c2.62,1.55,5.91,2.32,9.85,2.32c3.38,0,6.21-0.42,8.51-1.27
			c2.3-0.84,4.8-2.3,7.53-4.36l16.6,16.74c-7.5,8.25-18.71,12.38-33.62,12.38c-9.29,0-17.44-1.71-24.48-5.14
			c-7.03-3.42-12.47-8.18-16.32-14.28c-3.85-6.1-5.77-12.94-5.77-20.54c0-7.69,1.9-14.56,5.7-20.61s9-10.76,15.62-14.14
			c6.61-3.38,14.04-5.06,22.3-5.06c7.79,0,14.89,1.55,21.31,4.64c6.42,3.1,11.54,7.65,15.33,13.65c3.8,6,5.7,13.18,5.7,21.52
			C575.64,178.5,575.5,180.99,575.22,185.49z M525.42,162.56c-2.16,1.78-3.57,4.31-4.22,7.6h24.76c-0.66-3.19-2.06-5.7-4.22-7.53
			s-4.88-2.74-8.16-2.74S527.57,160.78,525.42,162.56z"/>
		<path d="M603.28,212.85c-6.8-3.42-12.12-8.16-15.97-14.21s-5.77-12.92-5.77-20.61s1.92-14.56,5.77-20.61
			c3.84-6.05,9.17-10.76,15.97-14.14s14.47-5.06,23-5.06c8.63,0,16.34,1.69,23.14,5.06c6.8,3.38,12.1,8.09,15.9,14.14
			c3.8,6.05,5.7,12.92,5.7,20.61s-1.9,14.56-5.7,20.61s-9.1,10.79-15.9,14.21c-6.8,3.42-14.51,5.14-23.14,5.14
			C617.75,217.99,610.08,216.27,603.28,212.85z M635.29,189.22c2.34-2.67,3.52-6.4,3.52-11.18s-1.17-8.49-3.52-11.11
			c-2.34-2.62-5.35-3.94-9-3.94c-3.66,0-6.66,1.31-9,3.94c-2.35,2.63-3.52,6.33-3.52,11.11s1.17,8.51,3.52,11.18
			c2.34,2.67,5.35,4.01,9,4.01C629.94,193.22,632.94,191.89,635.29,189.22z"/>
		<path d="M751,143.07c5.67,3.24,10.17,7.9,13.5,14s4.99,13.13,4.99,21.1s-1.67,14.98-4.99,21.03c-3.33,6.05-7.83,10.69-13.5,13.93
			c-5.68,3.24-11.89,4.85-18.64,4.85c-8.54,0-15.05-2.2-19.55-6.61v32.5h-31.79V139.63h30.25v6.33c4.59-5.16,11.63-7.74,21.1-7.74
			C739.11,138.22,745.32,139.84,751,143.07z M733.76,189.29c2.34-2.62,3.52-6.33,3.52-11.11s-1.17-8.51-3.52-11.18
			c-2.35-2.67-5.35-4.01-9-4.01c-3.66,0-6.66,1.34-9,4.01c-2.35,2.67-3.52,6.4-3.52,11.18s1.17,8.49,3.52,11.11
			c2.34,2.63,5.35,3.94,9,3.94C728.42,193.22,731.42,191.91,733.76,189.29z"/>
		<path d="M779.48,112.19h31.79v104.39h-31.79V112.19z"/>
		<path d="M906.8,185.49h-53.46c1.13,2.91,3,5.13,5.63,6.68c2.62,1.55,5.91,2.32,9.85,2.32c3.38,0,6.21-0.42,8.51-1.27
			c2.3-0.84,4.81-2.3,7.53-4.36l16.6,16.74c-7.5,8.25-18.71,12.38-33.62,12.38c-9.28,0-17.44-1.71-24.48-5.14
			c-7.03-3.42-12.47-8.18-16.32-14.28c-3.85-6.1-5.77-12.94-5.77-20.54c0-7.69,1.9-14.56,5.7-20.61s9-10.76,15.62-14.14
			s14.04-5.06,22.3-5.06c7.78,0,14.89,1.55,21.31,4.64c6.42,3.1,11.54,7.65,15.33,13.65c3.8,6,5.7,13.18,5.7,21.52
			C907.22,178.5,907.08,180.99,906.8,185.49z M857,162.56c-2.16,1.78-3.57,4.31-4.22,7.6h24.76c-0.66-3.19-2.06-5.7-4.22-7.53
			s-4.88-2.74-8.16-2.74C861.87,159.88,859.15,160.78,857,162.56z"/>
	</g>
</g>
</svg>
