<?xml version="1.0" encoding="utf-8"?>
<!-- Generator: Adobe Illustrator 26.0.3, SVG Export Plug-In . SVG Version: 6.00 Build 0)  -->
<svg version="1.1" id="Layer_1" xmlns="http://www.w3.org/2000/svg" xmlns:xlink="http://www.w3.org/1999/xlink" x="0px" y="0px"
	 viewBox="0 0 1101 266" style="enable-background:new 0 0 1101 266;" xml:space="preserve">
<style type="text/css">
	.st0{display:none;}
	.st1{display:inline;}
	.st2{display:inline;fill:#FFFFFF;}
</style>
<g class="st0">
	<polygon class="st1" points="168,265.5 0,265.5 25.5,162.8 65.9,0 66,-0.5 148,-0.5 147.9,0 83.3,186.5 148.2,186.5 	"/>
	<polyline class="st1" points="251,265.5 169,265.5 233.8,78.5 168.9,78.5 149.2,0 149,-0.5 	"/>
</g>
<g>
	<g>
		<path d="M288.8,114.7V15.5h29.4v99.2H288.8z"/>
		<path d="M388,69.7v-8.8h-53.1V43.5H416v53.8h16.8v17.5h-97.9v-45H388z M362.8,87.2v10.1H388V87.2H362.8z"/>
		<path d="M443.2,114.7V15.5h29.4v28h54.5v71.3H443.2z M472.6,66.5v25.2h25.2V66.5H472.6z"/>
		<path d="M543.9,114.7V43.5h72.7v23.1h-43.3v25.2h43.3v23.1H543.9z"/>
		<path d="M630.5,114.7V43.5h83.9v71.3H630.5z M659.9,66.5v25.2H685V66.5H659.9z"/>
		<path d="M771.7,114.7V66.5h-14v48.2h-26.6V43.5h107.6v71.3h-26.6V66.5h-14v48.2H771.7z"/>
	</g>
	<g>
		<path d="M374.9,142v108.5h-85.6v-23.6h55.7v-12.1h-55.7V142H374.9z M319.2,165.6v25.7h25.7v-25.7H319.2z"/>
		<path d="M392,214.8V142h72.8v23.6H422v49.2H392z"/>
		<path d="M475.5,214.8V142h85.6v72.8H475.5z M505.5,165.6v25.7h25.7v-25.7H505.5z"/>
		<path d="M578.3,214.8V142h30v49.2h25.7V142h30v72.8H578.3z"/>
		<path d="M681,250.5V142h85.6v72.8H711v35.7H681z M711,165.6v25.7h25.7v-25.7H711z"/>
	</g>
</g>
<polygon points="124.7,15.5 142.1,84.9 199.5,84.9 142.3,250.1 141.4,250.1 123.9,180.3 66.5,180.3 123.6,15.5 15.5,15.5 
	15.5,250.5 250.5,250.5 250.5,15.5 "/>
<g class="st0">
	<rect class="st1" width="266" height="266"/>
	<polyline class="st2" points="142.5,265.5 122.6,186.5 57.8,186.5 122.3,0 123.6,0 143.4,78.5 208.2,78.5 143.5,265.5 	"/>
</g>
</svg>
