<?xml version="1.0" encoding="utf-8"?>
<!-- Generator: Adobe Illustrator 26.0.3, SVG Export Plug-In . SVG Version: 6.00 Build 0)  -->
<svg version="1.1" id="Layer_1" xmlns="http://www.w3.org/2000/svg" xmlns:xlink="http://www.w3.org/1999/xlink" x="0px" y="0px"
	 viewBox="0 0 1101 266" style="enable-background:new 0 0 1101 266;" xml:space="preserve">
<g>
	<polygon points="76,-0.5 10,265.5 178,265.5 158.2,186.5 93.3,186.5 158,-0.5 	"/>
	<polygon points="261,265.5 327,-0.5 159,-0.5 178.9,78.5 243.8,78.5 179,265.5 	"/>
</g>
<g>
	<g>
		<path d="M378.5,119.7V20.4h29.4v99.4H378.5z"/>
		<path d="M477.8,74.7v-8.8h-53.2V48.4h81.2v53.9h16.8v17.5h-98V74.7H477.8z M452.6,92.2v10.1h25.2V92.2H452.6z"/>
		<path d="M533.1,119.7V20.4h29.4v28H617v71.4H533.1z M562.5,71.5v25.2h25.2V71.5H562.5z"/>
		<path d="M633.8,119.7V48.4h72.8v23.1h-43.4v25.2h43.4v23.1H633.8z"/>
		<path d="M720.6,119.7V48.4h84v71.4H720.6z M750,71.5v25.2h25.2V71.5H750z"/>
		<path d="M861.9,119.7V71.5h-14v48.3h-26.6V48.4h107.7v71.4h-26.6V71.5h-14v48.3H861.9z"/>
	</g>
	<g>
		<path d="M464.7,137v108.6h-85.7V222h55.7v-12.1h-55.7V137H464.7z M409,160.6v25.7h25.7v-25.7H409z"/>
		<path d="M481.8,209.9V137h72.9v23.6h-42.9v49.3H481.8z"/>
		<path d="M565.4,209.9V137h85.7v72.9H565.4z M595.4,160.6v25.7h25.7v-25.7H595.4z"/>
		<path d="M668.3,209.9V137h30v49.3H724V137h30v72.9H668.3z"/>
		<path d="M771.2,245.6V137h85.7v72.9h-55.7v35.7H771.2z M801.2,160.6v25.7h25.7v-25.7H801.2z"/>
	</g>
</g>
</svg>
