<?xml version="1.0" encoding="utf-8"?>
<!-- Generator: Adobe Illustrator 26.0.3, SVG Export Plug-In . SVG Version: 6.00 Build 0)  -->
<svg version="1.1" id="Layer_1" xmlns="http://www.w3.org/2000/svg" xmlns:xlink="http://www.w3.org/1999/xlink" x="0px" y="0px"
	 viewBox="0 0 1085 342" style="enable-background:new 0 0 1085 342;" xml:space="preserve">
<g>
	<path d="M170.8,0L170.8,0C76.4,0-0.2,76.6-0.2,171l0,0c0,94.4,76.6,171,171,171l0,0c94.4,0,171-76.6,171-171l0,0
		C341.8,76.6,265.3,0,170.8,0z M170.8,98c12.7,0,23,10.3,23,23s-10.3,23-23,23s-23-10.3-23-23S158.1,98,170.8,98z M262.8,169.3
		c-18.4,6-37.6,9.3-57.4,10.9V215c0,16-13,29-29,29h-11c-16,0-29-13-29-29v-34.8c-19.8-1.6-39.1-4.9-57.4-10.9
		c-5.1-1.7-8.6-6.4-8.6-11.8c0-8.3,7.9-14.2,15.9-11.9c26.7,7.6,55.2,10,84.6,10s57.9-2.4,84.6-10c8-2.3,15.9,3.7,15.9,11.9
		C271.3,162.8,267.9,167.6,262.8,169.3z"/>
</g>
<g>
	<path d="M535.2,139.5l-26.6,76.6h-30.8l-11.6-35.4l-12,35.4h-30.8l-26.6-76.6h30l13.2,40.5l13.7-40.5h26.9l13.3,40.9l13.7-40.9
		H535.2z"/>
	<path d="M556.9,212.4c-6.8-3.4-12.1-8.1-15.9-14.1c-3.8-6-5.7-12.9-5.7-20.5c0-7.7,1.9-14.5,5.7-20.5c3.8-6,9.1-10.7,15.9-14.1
		c6.8-3.4,14.4-5,22.9-5c8.6,0,16.3,1.7,23,5c6.8,3.4,12,8,15.8,14.1c3.8,6,5.7,12.9,5.7,20.5c0,7.7-1.9,14.5-5.7,20.5
		c-3.8,6-9.1,10.7-15.8,14.1c-6.8,3.4-14.4,5.1-23,5.1C571.3,217.5,563.6,215.8,556.9,212.4z M588.7,188.8c2.3-2.7,3.5-6.4,3.5-11.1
		c0-4.8-1.2-8.4-3.5-11.1c-2.3-2.6-5.3-3.9-9-3.9s-6.6,1.3-9,3.9c-2.3,2.6-3.5,6.3-3.5,11.1c0,4.8,1.2,8.5,3.5,11.1
		c2.3,2.7,5.3,4,9,4S586.4,191.5,588.7,188.8z"/>
	<path d="M689.1,138.1v28c-2.5-0.4-4.9-0.6-7-0.6c-10.8,0-16.2,5.5-16.2,16.5v34h-31.6v-76.6h30.1v8.3
		C669.9,141.3,678.2,138.1,689.1,138.1z"/>
	<path d="M734.7,192.6l-5,5.5v18.1h-31.6V112.2h31.6v49.6l22-22.3h37.4l-31.6,33.2l34.2,43.4h-38.2L734.7,192.6z"/>
	<path d="M805.7,215.4c-6.3-1.4-11.5-3.2-15.4-5.5l8.7-20.9c3.5,2.1,7.7,3.8,12.6,5c4.9,1.2,9.6,1.8,14.1,1.8c3.6,0,6.2-0.3,7.6-0.9
		c1.4-0.6,2.2-1.5,2.2-2.7c0-1.2-0.9-2.1-2.7-2.5c-1.8-0.5-4.8-0.9-8.9-1.4c-6.3-0.7-11.6-1.7-16-2.9c-4.4-1.2-8.2-3.4-11.5-6.8
		c-3.3-3.4-5-8.2-5-14.4c0-4.9,1.5-9.4,4.5-13.3c3-3.9,7.4-7,13.4-9.4c5.9-2.3,13-3.5,21.3-3.5c5.8,0,11.5,0.5,17,1.6
		c5.6,1.1,10.3,2.6,14.2,4.7l-8.7,20.9c-6.7-3.7-14.1-5.6-22.1-5.6c-6.9,0-10.4,1.2-10.4,3.6c0,1.2,0.9,2.1,2.8,2.6
		c1.9,0.5,4.8,1,8.8,1.5c6.3,0.7,11.5,1.7,15.9,2.9c4.3,1.2,8.2,3.5,11.5,6.9c3.3,3.4,5,8.2,5,14.4c0,4.8-1.5,9.1-4.5,13
		c-3,3.9-7.5,7-13.4,9.4c-6,2.3-13.2,3.5-21.7,3.5C818.5,217.5,812.1,216.8,805.7,215.4z"/>
	<path d="M930.6,213.4c-4.8,2.7-11.2,4.1-19.5,4.1c-10.7,0-19-2.6-24.8-7.8c-5.8-5.2-8.7-13-8.7-23.3v-19.6h-10.5v-23.1h10.5v-21.4
		h31.6v21.4H925v23.1h-15.7v19.3c0,2.3,0.6,4.2,1.8,5.5c1.2,1.3,2.8,2,4.8,2c2.7,0,5.1-0.7,7.1-2.1L930.6,213.4z"/>
	<path d="M1017.5,185.1h-53.2c1.1,2.9,3,5.1,5.6,6.7c2.6,1.5,5.9,2.3,9.8,2.3c3.4,0,6.2-0.4,8.5-1.3c2.3-0.8,4.8-2.3,7.5-4.3
		l16.5,16.7c-7.5,8.2-18.6,12.3-33.5,12.3c-9.2,0-17.4-1.7-24.4-5.1c-7-3.4-12.4-8.1-16.2-14.2c-3.8-6.1-5.7-12.9-5.7-20.4
		c0-7.7,1.9-14.5,5.7-20.5c3.8-6,9-10.7,15.5-14.1s14-5,22.2-5c7.7,0,14.8,1.5,21.2,4.6c6.4,3.1,11.5,7.6,15.3,13.6
		c3.8,6,5.7,13.1,5.7,21.4C1018,178.2,1017.8,180.7,1017.5,185.1z M968,162.3c-2.1,1.8-3.5,4.3-4.2,7.6h24.6
		c-0.7-3.2-2.1-5.7-4.2-7.5c-2.1-1.8-4.9-2.7-8.1-2.7C972.8,159.7,970.1,160.5,968,162.3z"/>
	<path d="M1082.8,138.1v28c-2.5-0.4-4.9-0.6-7-0.6c-10.8,0-16.2,5.5-16.2,16.5v34h-31.6v-76.6h30.1v8.3
		C1063.6,141.3,1071.9,138.1,1082.8,138.1z"/>
</g>
</svg>
